<svg width="10" height="16" viewBox="0 0 10 16" fill="none" xmlns="http://www.w3.org/2000/svg">
    <path d="M1.08702 7.17128L4.71662 13.2459C4.77362 13.3415 4.87642 13.4004 4.98772 13.4013C4.98852 13.4013 4.98962 13.4013 4.99042 13.4013C5.10062 13.4013 5.20322 13.3443 5.26152 13.2506L9.03962 7.17596C9.04902 7.16086 9.05712 7.14511 9.06342 7.12915C9.51522 6.39145 9.75352 5.54884 9.75352 4.68858C9.75352 2.10332 7.64972 0 5.06382 0C2.4788 0 0.375488 2.10332 0.375488 4.68858C0.375488 5.54906 0.614008 6.39187 1.06595 7.12979C1.07191 7.14405 1.07893 7.15788 1.08702 7.17128ZM5.06402 0.63855C7.29802 0.63855 9.11542 2.45546 9.11542 4.68879C9.11542 5.44735 8.90022 6.19059 8.49342 6.83786C8.48362 6.85318 8.47552 6.86914 8.46892 6.88573L4.99602 12.4691L1.66258 6.8902C1.65535 6.87212 1.64663 6.85445 1.63599 6.83765C1.22915 6.19037 1.01403 5.44735 1.01403 4.68858C1.01403 2.45546 2.83095 0.63855 5.06402 0.63855Z" fill="#181818"/>
    <path d="M5.06488 6.43148C6.02598 6.43148 6.80798 5.64951 6.80798 4.68839C6.80798 3.72727 6.02598 2.94531 5.06488 2.94531C4.10378 2.94531 3.32178 3.72727 3.32178 4.68839C3.32178 5.64951 4.10378 6.43148 5.06488 6.43148ZM5.06488 3.58364C5.67408 3.58364 6.16958 4.07921 6.16958 4.68839C6.16958 5.29758 5.67408 5.79314 5.06488 5.79314C4.45568 5.79314 3.96012 5.29758 3.96012 4.68839C3.95991 4.07921 4.45568 3.58364 5.06488 3.58364Z" fill="#181818"/>
    <path d="M9.09554 15.2334H1.03352C0.857125 15.2334 0.714355 15.3764 0.714355 15.5526C0.714355 15.7288 0.857125 15.8717 1.03352 15.8717H9.09554C9.27164 15.8717 9.41463 15.7288 9.41463 15.5526C9.41463 15.3764 9.27164 15.2334 9.09554 15.2334Z" fill="#181818"/>
</svg>