<svg width="14" height="13" viewBox="0 0 14 13" fill="none" xmlns="http://www.w3.org/2000/svg">
    <path fill-rule="evenodd" clip-rule="evenodd" d="M3.42632 0.918735C3.79632 1.51874 4.62627 2.96577 4.74627 3.22977C4.84887 3.40477 4.88116 3.61218 4.8366 3.81009C4.79204 4.008 4.67398 4.18161 4.50628 4.29575C4.18007 4.49354 3.87509 4.72445 3.59624 4.98478C3.45624 5.25178 3.32626 6.28478 4.86626 7.81778C6.40626 9.35078 7.64624 9.66078 7.96624 9.31778C8.28624 8.97478 8.47632 8.59579 8.67632 8.39579C8.82217 8.23713 9.02215 8.13884 9.23687 8.12033C9.45158 8.10182 9.66538 8.16439 9.83623 8.29575C10.6837 8.74357 11.5021 9.24457 12.2863 9.79575C12.7763 10.1737 13.1462 10.4487 12.9662 10.9397C12.8012 11.4312 12.5278 11.8792 12.1663 12.2508C11.8719 12.5434 11.5095 12.7584 11.1116 12.8767C10.7137 12.9951 10.2928 13.0129 9.88628 12.9287C8.72766 12.6443 7.62775 12.1593 6.63628 11.4958C5.58405 10.7428 4.60622 9.89093 3.71624 8.95176C2.90268 8.15218 2.15682 7.28653 1.48626 6.36374C0.827667 5.26251 0.351607 4.06202 0.0763438 2.80875C-0.0157295 2.4779 -0.0246726 2.12947 0.0503428 1.79435C0.125358 1.45922 0.281941 1.14781 0.506275 0.88779C0.906413 0.472863 1.41618 0.18011 1.97625 0.0437351C2.36625 -0.0582649 2.80632 -0.0582649 3.42632 0.918735Z" fill="#181818"/>
</svg>