<svg width="15" height="10" viewBox="0 0 15 10" fill="none" xmlns="http://www.w3.org/2000/svg">
    <path d="M14.7695 9.4122C14.7774 9.3877 14.7829 9.3617 14.7829 9.3345V0.334741C14.7829 0.307301 14.7774 0.281211 14.7693 0.256481C14.7681 0.253091 14.7675 0.249701 14.7661 0.246311C14.7553 0.217351 14.7393 0.19126 14.7193 0.16839C14.718 0.16687 14.7178 0.165 14.7165 0.16348C14.7156 0.16263 14.7146 0.16229 14.7138 0.16145C14.6924 0.13875 14.6672 0.12045 14.6389 0.10673C14.6367 0.10571 14.635 0.104361 14.6328 0.103341C14.606 0.0913106 14.5769 0.0845405 14.5462 0.0825005C14.5432 0.0823405 14.5403 0.0816603 14.5372 0.0816603C14.5344 0.0814903 14.5318 0.0808105 14.5289 0.0808105H0.433957C0.431077 0.0808105 0.428368 0.0814903 0.425488 0.0816603C0.422778 0.0818303 0.420067 0.0823405 0.417357 0.0825005C0.386357 0.0845405 0.356707 0.0914806 0.329607 0.103681C0.327917 0.104361 0.326557 0.10554 0.324867 0.10622C0.296067 0.11994 0.270487 0.138581 0.248977 0.161611C0.248127 0.162461 0.247107 0.16263 0.246257 0.16348C0.244907 0.16483 0.244737 0.166701 0.243377 0.168221C0.223397 0.191091 0.207298 0.217351 0.196458 0.246311C0.195108 0.249701 0.194427 0.25309 0.193237 0.25665C0.185107 0.28138 0.179688 0.30747 0.179688 0.33491V9.3348C0.179688 9.3626 0.185278 9.389 0.193578 9.4141C0.194768 9.4175 0.195437 9.4207 0.196627 9.4241C0.207637 9.4532 0.223897 9.4795 0.244057 9.5023C0.245247 9.5037 0.245588 9.5054 0.246768 9.5068C0.247788 9.5079 0.249137 9.5086 0.250327 9.5098C0.258627 9.5184 0.267777 9.5261 0.277257 9.5335C0.281497 9.5367 0.285227 9.5406 0.289627 9.5437C0.300807 9.5515 0.312837 9.5577 0.325207 9.5635C0.328247 9.5649 0.330958 9.5671 0.334008 9.5682C0.364678 9.5813 0.398387 9.5887 0.433787 9.5887H14.5286C14.564 9.5887 14.5977 9.5815 14.6284 9.5682C14.6331 9.5662 14.6375 9.5632 14.6421 9.5608C14.6526 9.5555 14.6631 9.5501 14.6728 9.5435C14.6778 9.54 14.6824 9.5354 14.6873 9.5315C14.696 9.5245 14.7044 9.5176 14.7119 9.5096C14.7132 9.5083 14.7148 9.5073 14.7161 9.5059C14.7175 9.5044 14.7178 9.5023 14.7192 9.5008C14.739 9.4781 14.7549 9.452 14.7658 9.4232C14.7675 9.4195 14.7683 9.416 14.7695 9.4122ZM0.688057 0.91104L4.96491 4.81758L0.688057 8.7553V0.91104ZM9.45388 4.62616C9.43628 4.63768 9.41758 4.64734 9.40288 4.6636C9.39728 4.6697 9.39538 4.67766 9.39048 4.68409L7.48135 6.4279L1.08886 0.58884H13.8739L9.45388 4.62616ZM5.34166 5.16163L7.30992 6.9595C7.35854 7.0039 7.41986 7.0261 7.48135 7.0261C7.54284 7.0261 7.60417 7.0039 7.65262 6.9595L9.59648 5.184L13.8727 9.0805H1.08514L5.34166 5.16163ZM9.97338 4.83977L14.2747 0.91104V8.7594L9.97338 4.83977Z" fill="#181818"/>
</svg>