<svg width="76" height="105" viewBox="0 0 76 105" fill="none" xmlns="http://www.w3.org/2000/svg">
    <path d="M23.2538 4.6188C18.4538 7.8188 6.58715 23.2855 1.25382 30.6188C-0.746181 34.6188 0.0871525 36.9521 0.753819 37.6188C1.75382 39.2854 4.45382 41.6188 7.25382 37.6188C10.0538 33.6188 26.4205 24.6188 34.2538 20.6188C36.5872 18.2854 41.1538 12.4188 40.7538 7.61877C40.2538 1.61877 35.7538 0.618802 34.2538 0.118802C32.7538 -0.381198 29.2538 0.618802 23.2538 4.6188Z" fill="#47D6FF"/>
    <path d="M50.2538 31.1188C44.6538 33.1188 29.9205 40.9521 23.2538 44.6188C22.7538 45.6188 20.2538 44.6188 15.2538 46.1188C11.2538 47.3188 9.58715 51.6188 9.25382 53.6188C9.08715 55.2854 9.55382 58.4188 12.7538 57.6188C16.7538 56.6188 31.2538 57.6188 37.2538 58.6188C43.2538 59.6188 49.2538 59.1188 57.2538 57.6188C65.2538 56.1188 65.2538 54.6188 66.7538 52.6188C68.2538 50.6188 76.2538 53.6188 75.2538 40.6188C74.2538 27.6188 57.2538 28.6188 50.2538 31.1188Z" fill="#47D6FF"/>
    <path d="M16.7538 73.1188C11.5538 71.5188 7.58715 74.4521 6.25382 76.1188C11.9205 84.9521 23.9538 102.819 26.7538 103.619C30.2538 104.619 30.7538 103.619 32.7538 103.619C34.7538 103.619 38.2538 100.119 39.2538 98.1188C40.2538 96.1188 40.7538 88.1188 39.2538 85.6188C37.7538 83.1188 23.2538 75.1188 16.7538 73.1188Z" fill="#47D6FF"/>
</svg>