<svg width="74" height="72" viewBox="0 0 74 72" fill="none" xmlns="http://www.w3.org/2000/svg">
    <path d="M8.30006 14.5654C4.51309 16.4791 11.4559 27.3233 15.4006 32.5062C17.7675 34.8983 0.60773 41.4766 0.016015 46.2608C-0.5757 51.045 15.4006 51.045 19.5426 52.2411C23.6846 53.4371 14.2172 71.378 21.3178 71.976C28.4184 72.574 33.7438 61.8095 37.8858 60.6135C42.0278 59.4174 48.5367 72.574 53.2704 71.976C58.0041 71.378 54.4538 55.2312 55.6373 51.6431C56.8207 48.0549 73.3887 50.447 73.9804 45.6628C74.5722 40.8786 61.5544 34.3003 59.7793 31.9082C58.0041 29.5161 67.4716 16.9575 65.6964 13.3693C63.9213 9.78116 52.087 16.3595 47.3532 17.5555C42.6195 18.7516 40.8444 2.60492 36.7024 0.212807C32.5604 -2.1793 27.8266 16.3595 27.2349 17.5555C26.6432 18.7516 13.0338 12.1733 8.30006 14.5654Z" fill="#47D6FF"/>
</svg>