<svg width="84" height="80" viewBox="0 0 84 80" fill="none" xmlns="http://www.w3.org/2000/svg">
    <path fill-rule="evenodd" clip-rule="evenodd" d="M33.6156 2.88386C25.1806 7.28086 9.63765 18.9079 3.95565 25.0729C-0.0663533 29.4359 -0.329354 30.0599 0.207646 33.9709C1.09165 40.4219 8.48465 62.1549 12.6496 70.5469C15.7836 76.8609 16.8466 78.1469 19.3726 78.6789C23.3416 79.5139 60.7576 79.7199 64.7186 78.9279C67.5776 78.3559 68.1146 77.5349 71.7476 68.1779C76.1806 56.7589 80.3596 43.8069 82.3336 35.3689C83.4606 30.5519 83.4476 29.3849 82.2506 27.6759C80.0846 24.5829 62.2676 10.5589 53.8016 5.28186C43.4256 -1.18514 41.7946 -1.37914 33.6156 2.88386Z" fill="#4B3995"/>
</svg>