<svg width="195" height="98" viewBox="0 0 195 98" fill="none" xmlns="http://www.w3.org/2000/svg">
    <path d="M1.25382 58.2753C-0.746181 59.8753 0.0871525 64.2753 0.753819 66.2753C0.920486 69.6086 3.15382 74.4753 10.7538 67.2753C20.2538 58.2753 16.2538 63.2753 19.2538 66.2753C22.2538 69.2754 15.2538 89.2753 37.2538 89.7753C59.2538 90.2753 58.2538 72.7753 74.2538 61.7753C90.2538 50.7753 81.7538 59.7753 86.7538 74.2753C91.7538 88.7753 97.2538 96.2753 119.754 97.2753C142.254 98.2753 155.254 75.7753 173.754 56.2753C192.254 36.7753 191.254 24.2753 193.254 20.7753C195.254 17.2753 193.754 8.27527 191.754 5.27527C189.754 2.27527 187.254 3.27527 185.754 3.27527C184.254 3.27527 183.754 2.27536 180.254 0.275363C176.754 -1.72464 167.754 7.77536 166.754 9.27536C165.754 10.7754 165.254 9.27536 162.254 9.77536C159.254 10.2754 145.754 22.2754 144.254 23.7754C142.754 25.2754 142.254 24.7754 140.254 24.7754C138.654 24.7754 133.254 30.1087 130.754 32.7754C128.92 34.442 124.754 37.8754 122.754 38.2754C120.254 38.7754 114.754 48.2754 110.254 48.7754C105.754 49.2754 108.254 35.7754 107.754 31.2754C107.254 26.7754 103.254 25.2754 97.2538 23.7754C91.2538 22.2754 87.2538 26.7754 84.7538 28.2754C82.2538 29.7754 82.2538 29.2753 79.2538 29.2753C76.2538 29.2753 76.2538 33.2754 74.2538 33.7754C72.2538 34.2754 70.7538 35.7754 68.7538 38.7753C66.7538 41.7753 66.2538 40.7754 62.7538 41.7754C59.9538 42.5754 51.9205 51.1087 48.2538 55.2754C46.2538 58.1087 42.4538 60.4754 43.2538 47.2754C44.0538 34.0754 39.5871 29.7754 37.2538 29.2753C36.2538 29.1087 33.2538 28.9753 29.2538 29.7753C24.2538 30.7753 20.7538 36.7753 17.2538 38.7753C14.4538 40.3753 7.75381 52.1087 4.75381 57.7753C4.42048 57.2753 3.25382 56.6753 1.25382 58.2753Z" fill="#47D6FF"/>
</svg>