<svg width="49" height="50" viewBox="0 0 49 50" fill="none" xmlns="http://www.w3.org/2000/svg">
<path fill-rule="evenodd" clip-rule="evenodd" d="M36.1426 0.103512C35.3491 0.410879 34.8326 0.8839 34.4283 1.67347C34.2394 2.04231 34.2182 2.2584 34.1729 4.2747C34.1252 6.39186 34.1142 6.49409 33.875 7.02292C33.5588 7.7219 33.0773 8.27359 32.5008 8.59728C32.1517 8.79323 29.7021 9.64995 29.4909 9.64995C29.4685 9.64995 29.461 13.1337 29.4744 17.3916L29.4985 25.1332L30.0079 25.5016C30.2881 25.7042 30.7554 25.9698 31.0463 26.0916C31.5752 26.3132 31.576 26.3132 37.9473 26.3432C42.4568 26.3644 44.4848 26.3405 44.8857 26.2612C46.5238 25.9371 47.8823 24.5552 48.226 22.8634C48.3636 22.186 48.3714 12.1437 48.2349 11.3985C47.9962 10.0954 47.1833 8.94305 46.0854 8.35129C45.1644 7.85491 44.7275 7.79304 42.1434 7.79304H39.8353V5.17207C39.8353 2.19575 39.7817 1.85633 39.1889 1.08034C38.6758 0.408631 37.9952 0.04976 37.1512 0.00587844C36.7407 -0.0154271 36.3528 0.0221019 36.1426 0.103512ZM21.688 7.99457C21.4723 8.11253 21.2612 8.33731 21.1452 8.57275C20.9595 8.9496 20.9553 9.13607 20.9553 17.0776C20.9553 24.8569 20.9628 25.2123 21.1344 25.5605C21.2395 25.7737 21.4691 26.0143 21.6901 26.143C22.0418 26.3476 22.1799 26.3621 23.7804 26.3621C25.7744 26.3621 26.0912 26.2688 26.4293 25.5828C26.6153 25.2054 26.6193 25.0223 26.6193 17.0776C26.6193 9.29821 26.6119 8.94286 26.4403 8.59464C26.3352 8.38139 26.1056 8.14077 25.8846 8.01216C25.5316 7.80673 25.3997 7.79334 23.7745 7.79734C22.2356 7.80116 22.0013 7.82334 21.688 7.99457ZM0.71644 17.4945C0.514142 17.6146 0.26993 17.8661 0.173642 18.0533C0.00532744 18.3808 -0.00128053 18.9797 0.000135465 33.6415L0.00174026 48.8892L0.212535 49.27C0.597119 49.9644 1.36836 50.1959 2.05559 49.8232C2.24817 49.7188 3.55277 48.8392 4.95461 47.8686L7.5034 46.104H22.5473L37.5912 46.1039L37.9678 45.8848C38.1888 45.7561 38.4183 45.5155 38.5234 45.3023C38.6948 44.9545 38.7025 44.6043 38.7025 37.1226V29.3063L34.9973 29.2684C31.805 29.2358 31.2138 29.2066 30.7257 29.0579C30.1416 28.8798 29.0289 28.3616 28.5862 28.0613C28.3387 27.8933 28.3297 27.8955 28 28.195C27.4739 28.6732 26.9042 28.9797 26.2404 29.1418C25.3745 29.3531 22.2314 29.3524 21.3325 29.1407C19.8186 28.7842 18.5072 27.3715 18.2191 25.7868C18.1642 25.4852 18.1234 23.5545 18.1234 21.2667V17.273L9.60379 17.2746L1.08422 17.2762L0.71644 17.4945ZM15.8145 24.8445C16.2293 25.0962 16.5186 25.6217 16.5186 26.1236C16.5186 26.5416 16.1855 27.082 15.7839 27.3157C15.409 27.5339 15.3875 27.5349 11.0976 27.5349C6.96456 27.5349 6.77265 27.5267 6.41535 27.3381C5.44945 26.828 5.42944 25.3889 6.38042 24.8244C6.74622 24.6073 6.77123 24.6061 11.0823 24.6045L15.4164 24.6029L15.8145 24.8445ZM32.3873 31.4705C33.2303 32.0536 33.2303 33.278 32.3873 33.861L32.0666 34.0829H19.3506H6.63454L6.31377 33.861C5.94392 33.6053 5.66289 33.0891 5.66289 32.6658C5.66289 32.2424 5.94392 31.7263 6.31377 31.4705L6.63454 31.2487H19.3506H32.0666L32.3873 31.4705ZM32.3345 38.0383C32.7493 38.2899 33.0385 38.8154 33.0385 39.3174C33.0385 39.7354 32.7055 40.2757 32.3038 40.5095L31.9272 40.7286H19.3575C6.94616 40.7286 6.78322 40.7262 6.41535 40.5319C5.44945 40.0217 5.42944 38.5826 6.38042 38.0181L6.7482 37.7999L19.3422 37.7982L31.9363 37.7967L32.3345 38.0383Z" fill="white"/>
</svg>
