<svg width="43" height="43" viewBox="0 0 43 43" fill="none" xmlns="http://www.w3.org/2000/svg">
<path d="M38 0H5C2.23858 0 0 2.23858 0 5V38C0 40.7614 2.23858 43 5 43H38C40.7614 43 43 40.7614 43 38V5C43 2.23858 40.7614 0 38 0Z" fill="#3B5998"/>
<path fill-rule="evenodd" clip-rule="evenodd" d="M23.988 16.9799L24.3 14.9999C23.5007 14.9455 22.6984 14.9515 21.9 15.0179C21.3432 15.092 20.8342 15.3717 20.473 15.8019C20.1321 16.2632 19.9633 16.8293 19.996 17.4019V19.9939L17.996 19.9789V21.9859L19.996 21.9929V27.9929L22.009 27.9879V21.9879H24.383L24.693 19.9809H22.009C22.009 19.9809 22.009 17.6959 22.009 17.4719C22.0178 17.3944 22.0427 17.3196 22.082 17.2523C22.1213 17.1849 22.1742 17.1265 22.2373 17.0807C22.3004 17.0349 22.3723 17.0027 22.4485 16.9862C22.5248 16.9697 22.6036 16.9693 22.68 16.9849C23.122 16.9789 23.988 16.9799 23.988 16.9799Z" fill="white"/>
<path d="M26 14H17C15.3431 14 14 15.3431 14 17V26C14 27.6569 15.3431 29 17 29H26C27.6569 29 29 27.6569 29 26V17C29 15.3431 27.6569 14 26 14Z" fill="white"/>
<path fill-rule="evenodd" clip-rule="evenodd" d="M24.988 18.9799L25.3 16.9999C24.5007 16.9455 23.6984 16.9515 22.9 17.0179C22.3432 17.092 21.8342 17.3717 21.473 17.8019C21.1321 18.2632 20.9633 18.8293 20.996 19.4019V21.9939L18.996 21.9789V23.9859L20.996 23.9929V29.9929L23.009 29.9879V23.9879H25.383L25.693 21.9809H23.009C23.009 21.9809 23.009 19.6959 23.009 19.4719C23.0178 19.3944 23.0427 19.3196 23.082 19.2523C23.1213 19.1849 23.1742 19.1265 23.2373 19.0807C23.3004 19.0349 23.3723 19.0027 23.4485 18.9862C23.5248 18.9697 23.6036 18.9693 23.68 18.9849C24.122 18.9789 24.988 18.9799 24.988 18.9799Z" fill="#3B5998"/>
</svg>
