<svg width="25" height="25" viewBox="0 0 25 25" fill="none" xmlns="http://www.w3.org/2000/svg">
<circle cx="12.5" cy="12.5" r="12.5" fill="#4B3995"/>
<path fill-rule="evenodd" clip-rule="evenodd" d="M15.2631 8.85739L15.5892 7.03387C14.7537 6.98372 13.9152 6.98927 13.0807 7.05045C12.4987 7.11872 11.9666 7.37625 11.5891 7.77248C11.2328 8.19733 11.0564 8.71863 11.0905 9.24604V11.6332L9 11.6194V13.4677L11.0905 13.4742V19L13.1946 18.9954V13.4696H15.676L16 11.6212H13.1946C13.1946 11.6212 13.1946 9.51678 13.1946 9.31048C13.2038 9.23913 13.2298 9.17027 13.2709 9.10824C13.3119 9.0462 13.3672 8.99238 13.4332 8.9502C13.4992 8.90801 13.5743 8.87837 13.654 8.86318C13.7337 8.848 13.8161 8.84758 13.8959 8.86197C14.3579 8.85645 15.2631 8.85739 15.2631 8.85739Z" fill="white"/>
</svg>
