<svg width="63" height="61" viewBox="0 0 63 61" fill="none" xmlns="http://www.w3.org/2000/svg">
    <path d="M7.01356 12.1779C3.81356 13.7779 9.68023 22.8445 13.0136 27.1779C15.0136 29.1779 0.513533 34.6779 0.0135327 38.6779C-0.486467 42.6779 13.0136 42.6779 16.5135 43.6779C20.0135 44.6779 12.0135 59.6779 18.0135 60.1779C24.0135 60.6779 28.5135 51.6779 32.0135 50.6779C35.5135 49.6779 41.0135 60.6779 45.0135 60.1779C49.0135 59.6779 46.0135 46.1779 47.0135 43.1779C48.0135 40.1779 62.0135 42.1779 62.5135 38.1779C63.0135 34.1779 52.0135 28.6779 50.5135 26.6779C49.0135 24.6779 57.0135 14.1779 55.5135 11.1779C54.0135 8.17786 44.0135 13.6779 40.0135 14.6779C36.0135 15.6779 34.5135 2.17792 31.0135 0.177924C27.5135 -1.82208 23.5135 13.6779 23.0135 14.6779C22.5135 15.6779 11.0136 10.1779 7.01356 12.1779Z" fill="#73BB47"/>
</svg>