<svg width="25" height="25" viewBox="0 0 25 25" fill="none" xmlns="http://www.w3.org/2000/svg">
<circle cx="12.5" cy="12.5" r="12.5" fill="#EF463C"/>
<path fill-rule="evenodd" clip-rule="evenodd" d="M9 5H16C17.0609 5 18.0783 5.42142 18.8284 6.17157C19.5786 6.92172 20 7.93913 20 9V16C20 17.0609 19.5786 18.0783 18.8284 18.8284C18.0783 19.5786 17.0609 20 16 20H9C7.93913 20 6.92172 19.5786 6.17157 18.8284C5.42142 18.0783 5 17.0609 5 16V9C5 7.93913 5.42142 6.92172 6.17157 6.17157C6.92172 5.42142 7.93913 5 9 5ZM9 7H16C16.5304 7 17.0391 7.21071 17.4142 7.58578C17.7893 7.96086 18 8.46957 18 9V16C18 16.5304 17.7893 17.0391 17.4142 17.4142C17.0391 17.7893 16.5304 18 16 18H9C8.46957 18 7.96089 17.7893 7.58582 17.4142C7.21074 17.0391 7 16.5304 7 16V9C7 8.46957 7.21074 7.96086 7.58582 7.58578C7.96089 7.21071 8.46957 7 9 7ZM12.5 9C13.1922 9 13.8689 9.20526 14.4445 9.58984C15.0201 9.97443 15.4687 10.5211 15.7336 11.1606C15.9985 11.8002 16.0678 12.5039 15.9327 13.1828C15.7977 13.8618 15.4643 14.4854 14.9749 14.9749C14.4854 15.4644 13.8617 15.7977 13.1828 15.9327C12.5039 16.0678 11.8001 15.9985 11.1606 15.7336C10.521 15.4687 9.97443 15.0201 9.58984 14.4445C9.20526 13.8689 9 13.1922 9 12.5C9 11.5717 9.36877 10.6815 10.0251 10.0251C10.6815 9.36874 11.5717 9 12.5 9ZM12.5 11C12.7967 11 13.0867 11.088 13.3334 11.2528C13.58 11.4176 13.7723 11.6519 13.8858 11.926C13.9993 12.2001 14.0291 12.5017 13.9712 12.7926C13.9133 13.0836 13.7704 13.3509 13.5607 13.5607C13.3509 13.7704 13.0836 13.9133 12.7927 13.9712C12.5017 14.0291 12.2001 13.9994 11.926 13.8858C11.6519 13.7723 11.4176 13.58 11.2528 13.3333C11.088 13.0867 11 12.7967 11 12.5C11 12.1022 11.158 11.7206 11.4393 11.4393C11.7206 11.158 12.1022 11 12.5 11Z" fill="white"/>
</svg>
