<svg width="76" height="105" viewBox="0 0 76 105" fill="none" xmlns="http://www.w3.org/2000/svg">
    <path d="M52.086 99.4444C56.886 96.2444 68.7527 80.7778 74.086 73.4444C76.086 69.4444 75.2527 67.1111 74.586 66.4445C73.586 64.7778 70.886 62.4445 68.086 66.4445C65.286 70.4445 48.9194 79.4445 41.086 83.4445C38.7527 85.7778 34.186 91.6445 34.586 96.4445C35.086 102.444 39.586 103.444 41.086 103.944C42.586 104.444 46.086 103.444 52.086 99.4444Z" fill="#EF463C"/>
    <path d="M25.086 72.9445C30.686 70.9445 45.4194 63.1111 52.086 59.4445C52.586 58.4445 55.086 59.4445 60.086 57.9445C64.086 56.7445 65.7527 52.4445 66.086 50.4445C66.2527 48.7778 65.786 45.6445 62.586 46.4445C58.586 47.4445 44.086 46.4445 38.086 45.4445C32.086 44.4445 26.086 44.9445 18.086 46.4445C10.086 47.9445 10.086 49.4445 8.58602 51.4445C7.08602 53.4445 -0.913979 50.4445 0.0860214 63.4445C1.08602 76.4445 18.086 75.4445 25.086 72.9445Z" fill="#EF463C"/>
    <path d="M58.586 30.9445C63.786 32.5445 67.7527 29.6111 69.086 27.9445C63.4194 19.1111 51.386 1.24446 48.586 0.444458C45.086 -0.555542 44.586 0.444458 42.586 0.444458C40.586 0.444458 37.086 3.94446 36.086 5.94446C35.086 7.94446 34.586 15.9445 36.086 18.4445C37.586 20.9445 52.086 28.9445 58.586 30.9445Z" fill="#EF463C"/>
</svg>