<svg width="120" height="190" viewBox="0 0 120 190" fill="none" xmlns="http://www.w3.org/2000/svg">
    <path fill-rule="evenodd" clip-rule="evenodd" d="M31.3127 21.4005C12.809 36.0013 3.58022 44.6745 2.17898 48.7773C-0.699069 57.2166 -0.738495 138.806 2.13463 144.198C5.54328 150.598 55.3457 190 60.0275 190C64.5893 190 112.053 153.061 117.091 145.589C119.668 141.766 120 136.053 120 95.4495C120 62.4717 119.425 48.5434 117.947 45.7684C115.509 41.1882 63.8797 -0.0462508 60.6386 3.89437e-05C59.4065 0.0170931 46.2105 9.6478 31.3127 21.4005ZM98.6315 95.3277L98.6446 126.125L80.2905 141.181C70.1959 149.465 60.678 155.753 59.1404 155.156C57.6012 154.559 48.8586 147.84 39.7119 140.226L23.0793 126.381V95.1133V63.8458L41.56 49.3839L60.0406 34.922L79.3295 49.7274L98.6183 64.5304L98.6315 95.3277Z" fill="#EF463C"/>
</svg>