<svg width="74" height="78" viewBox="0 0 74 78" fill="none" xmlns="http://www.w3.org/2000/svg">
    <path fill-rule="evenodd" clip-rule="evenodd" d="M19.0614 8.78402C7.79745 14.777 2.17944 18.337 1.32644 20.021C-0.425555 23.485 -0.449556 56.974 1.29944 59.187C3.37444 61.814 33.6914 77.987 36.5414 77.987C39.3184 77.987 68.2114 62.825 71.2784 59.758C72.8474 58.189 73.0494 55.844 73.0494 39.178C73.0494 25.642 72.6994 19.925 71.7994 18.786C70.3154 16.906 38.8864 -0.018984 36.9134 1.59847e-05C36.1634 0.00701598 28.1304 3.96002 19.0614 8.78402ZM60.0414 39.128L60.0494 51.769L48.8764 57.949C42.7314 61.349 36.9374 63.93 36.0014 63.685C35.0644 63.44 29.7424 60.682 24.1744 57.557L14.0494 51.874V39.04V26.206L25.2994 20.27L36.5494 14.334L48.2914 20.411L60.0334 26.487L60.0414 39.128Z" fill="#73BB47"/>
</svg>