<svg width="420" height="229" viewBox="0 0 420 229" fill="none" xmlns="http://www.w3.org/2000/svg">
    <path d="M2.93766 137.143C-1.74828 140.909 0.204195 151.263 1.76617 155.97C2.15667 163.815 7.38929 175.268 25.1958 158.323C47.454 137.143 38.0821 148.91 45.111 155.97C52.1399 163.03 35.7392 210.097 87.2844 211.274C138.83 212.451 136.487 171.267 173.974 145.38C211.462 119.493 191.546 140.673 203.261 174.797C214.976 208.921 227.862 226.571 280.579 228.924C333.296 231.278 363.754 178.327 407.099 132.436C450.444 86.5457 448.101 57.1286 452.787 48.8918C457.473 40.655 453.959 19.4747 449.273 12.4146C444.587 5.35454 438.729 7.7079 435.215 7.7079C431.701 7.7079 430.529 5.35476 422.329 0.648029C414.128 -4.0587 393.042 18.2983 390.699 21.8283C388.356 25.3584 387.184 21.8283 380.155 23.005C373.126 24.1817 341.496 52.4221 337.982 55.9522C334.467 59.4823 333.296 58.3055 328.61 58.3055C324.861 58.3055 312.209 70.8568 306.352 77.1324C302.056 81.0547 292.294 89.1346 287.608 90.0759C281.751 91.2526 268.864 113.61 258.321 114.786C247.778 115.963 253.635 84.1925 252.464 73.6024C251.292 63.0122 241.92 59.4822 227.862 55.9522C213.805 52.4221 204.433 63.0123 198.575 66.5423C192.718 70.0724 192.718 68.8956 185.689 68.8956C178.66 68.8956 178.66 78.3091 173.974 79.4858C169.288 80.6625 165.774 84.1926 161.088 91.2526C156.402 98.3126 155.23 95.9594 147.03 98.3128C140.47 100.195 121.648 120.277 113.057 130.083C108.371 136.751 99.4679 142.321 101.342 111.256C103.217 80.1918 92.7514 70.0723 87.2844 68.8956C84.9415 68.5034 77.9126 68.1896 68.5407 70.0723C56.8259 72.4256 48.6255 86.5458 40.4251 91.2526C33.8648 95.018 18.1669 122.631 11.138 135.966C10.357 134.79 7.62359 133.378 2.93766 137.143Z" fill="white"/>
</svg>