<svg width="159" height="213" viewBox="0 0 159 213" fill="none" xmlns="http://www.w3.org/2000/svg">
    <path fill-rule="evenodd" clip-rule="evenodd" d="M41.4893 23.9911C16.972 40.3593 4.7438 50.0825 2.88715 54.6819C-0.926267 64.1428 -0.978506 155.609 2.82838 161.653C7.34484 168.828 73.3331 213 79.5364 213C85.5808 213 148.47 171.589 155.145 163.213C158.56 158.927 159 152.523 159 107.004C159 70.0341 158.238 54.4197 156.279 51.3088C153.049 46.1741 84.6405 -0.0518496 80.3461 4.36579e-05C78.7136 0.0191622 61.2289 10.8157 41.4893 23.9911ZM130.687 106.867L130.704 141.393L106.385 158.272C93.0096 167.558 80.3983 174.607 78.361 173.938C76.3215 173.269 64.7376 165.736 52.6183 157.201L30.5801 141.68V106.627V71.5745L55.067 55.362L79.5538 39.1494L105.112 55.7471L130.669 72.342L130.687 106.867Z" fill="#FCD635"/>
</svg>