<svg width="7" height="12" viewBox="0 0 7 12" fill="none" xmlns="http://www.w3.org/2000/svg">
    <path fill-rule="evenodd" clip-rule="evenodd" d="M6.26309 1.85739L6.58921 0.0338677C5.75374 -0.0162764 4.9152 -0.0107299 4.08068 0.05045C3.49866 0.118716 2.96663 0.376254 2.58911 0.772485C2.23281 1.19733 2.05637 1.71863 2.09048 2.24604V4.63317L0 4.61937V6.46774L2.09048 6.4742V12L4.19455 11.9954V6.46959H6.67598L7 4.62119H4.19455C4.19455 4.62119 4.19455 2.51678 4.19455 2.31048C4.20378 2.23913 4.22977 2.17027 4.27085 2.10824C4.31193 2.0462 4.36725 1.99238 4.43321 1.9502C4.49918 1.90801 4.57435 1.87837 4.65401 1.86318C4.73368 1.848 4.81607 1.84758 4.89593 1.86197C5.35793 1.85645 6.26309 1.85739 6.26309 1.85739Z" fill="white"/>
</svg>