<svg width="15" height="15" viewBox="0 0 15 15" fill="none" xmlns="http://www.w3.org/2000/svg">
    <path fill-rule="evenodd" clip-rule="evenodd" d="M4 -0.00012207H11C12.0609 -0.00012207 13.0783 0.421302 13.8284 1.17145C14.5786 1.92159 15 2.93901 15 3.99988V10.9999C15 12.0607 14.5786 13.0782 13.8284 13.8283C13.0783 14.5785 12.0609 14.9999 11 14.9999H4C2.93913 14.9999 1.92172 14.5785 1.17157 13.8283C0.421424 13.0782 0 12.0607 0 10.9999V3.99988C0 2.93901 0.421424 1.92159 1.17157 1.17145C1.92172 0.421302 2.93913 -0.00012207 4 -0.00012207ZM4 1.99988H11C11.5304 1.99988 12.0391 2.21059 12.4142 2.58566C12.7893 2.96074 13 3.46944 13 3.99988V10.9999C13 11.5303 12.7893 12.039 12.4142 12.4141C12.0391 12.7892 11.5304 12.9999 11 12.9999H4C3.46957 12.9999 2.96089 12.7892 2.58582 12.4141C2.21074 12.039 2 11.5303 2 10.9999V3.99988C2 3.46944 2.21074 2.96074 2.58582 2.58566C2.96089 2.21059 3.46957 1.99988 4 1.99988ZM7.5 3.99988C8.19223 3.99988 8.86895 4.20514 9.44452 4.58972C10.0201 4.97431 10.4687 5.52095 10.7336 6.16049C10.9985 6.80003 11.0678 7.50378 10.9327 8.18271C10.7977 8.86164 10.4643 9.48528 9.97485 9.97476C9.48537 10.4642 8.86173 10.7976 8.1828 10.9326C7.50387 11.0677 6.80013 10.9984 6.16058 10.7335C5.52104 10.4686 4.97443 10.0199 4.58984 9.44437C4.20526 8.86879 4 8.19211 4 7.49988C4 6.57162 4.36877 5.68137 5.02515 5.02499C5.68152 4.36862 6.57174 3.99988 7.5 3.99988ZM7.5 5.99988C7.79667 5.99988 8.0867 6.08786 8.33337 6.25269C8.58005 6.41751 8.77227 6.65175 8.8858 6.92584C8.99933 7.19993 9.02907 7.50154 8.97119 7.79251C8.91331 8.08348 8.77045 8.35077 8.56067 8.56055C8.35089 8.77033 8.08364 8.91319 7.79266 8.97107C7.50169 9.02895 7.20005 8.99924 6.92596 8.88571C6.65188 8.77218 6.41763 8.5799 6.25281 8.33322C6.08799 8.08655 6 7.79655 6 7.49988C6 7.10205 6.15803 6.72051 6.43933 6.43921C6.72064 6.1579 7.10218 5.99988 7.5 5.99988Z" fill="white"/>
</svg>